<svg xmlns="http://www.w3.org/2000/svg" xmlns:xlink="http://www.w3.org/1999/xlink" xmlns:lucid="lucid" width="1320" height="619"><g transform="translate(-360 -320)" lucid:page-tab-id="HWEp-vi-RSFO"><path d="M515 700h910v219H515z" stroke="#333" stroke-width="2" fill="#fff"/><path d="M515 737.6h910m-910 58.1h910" stroke="#333" stroke-width="2" fill="none"/><use xlink:href="#a" transform="matrix(1,0,0,1,523.0000000000002,708) translate(428.525 14.6)"/><use xlink:href="#b" transform="matrix(1,0,0,1,527.0000000000002,803.7) translate(0 24.69999999999999)"/><use xlink:href="#c" transform="matrix(1,0,0,1,527.0000000000002,803.7) translate(15.5 24.69999999999999)"/><use xlink:href="#b" transform="matrix(1,0,0,1,527.0000000000002,803.7) translate(0 46.29999999999999)"/><use xlink:href="#d" transform="matrix(1,0,0,1,527.0000000000002,803.7) translate(15.5 46.29999999999999)"/><use xlink:href="#e" transform="matrix(1,0,0,1,527.0000000000002,803.7) translate(178.2 46.29999999999999)"/><use xlink:href="#f" transform="matrix(1,0,0,1,527.0000000000002,803.7) translate(232.1 46.29999999999999)"/><use xlink:href="#e" transform="matrix(1,0,0,1,527.0000000000002,803.7) translate(301.95 46.29999999999999)"/><use xlink:href="#g" transform="matrix(1,0,0,1,527.0000000000002,803.7) translate(355.84999999999997 46.29999999999999)"/><use xlink:href="#e" transform="matrix(1,0,0,1,527.0000000000002,803.7) translate(494.65 46.29999999999999)"/><use xlink:href="#h" transform="matrix(1,0,0,1,527.0000000000002,803.7) translate(548.55 46.29999999999999)"/><use xlink:href="#e" transform="matrix(1,0,0,1,527.0000000000002,803.7) translate(673.4 46.29999999999999)"/><use xlink:href="#i" transform="matrix(1,0,0,1,527.0000000000002,803.7) translate(727.3 46.29999999999999)"/><use xlink:href="#j" transform="matrix(1,0,0,1,527.0000000000002,803.7) translate(817.1999999999999 46.29999999999999)"/><use xlink:href="#b" transform="matrix(1,0,0,1,527.0000000000002,803.7) translate(0 67.89999999999999)"/><use xlink:href="#k" transform="matrix(1,0,0,1,527.0000000000002,803.7) translate(15.5 67.89999999999999)"/><use xlink:href="#e" transform="matrix(1,0,0,1,527.0000000000002,803.7) translate(133.25 67.89999999999999)"/><use xlink:href="#l" transform="matrix(1,0,0,1,527.0000000000002,803.7) translate(187.15 67.89999999999999)"/><use xlink:href="#m" transform="matrix(1,0,0,1,527.0000000000002,803.7) translate(221.10000000000002 67.89999999999999)"/><use xlink:href="#n" transform="matrix(1,0,0,1,527.0000000000002,803.7) translate(0 89.5)"/><use xlink:href="#o" transform="matrix(1,0,0,1,527.0000000000002,803.7) translate(10.95 89.5)"/><use xlink:href="#e" transform="matrix(1,0,0,1,527.0000000000002,803.7) translate(119.75000000000001 89.5)"/><use xlink:href="#p" transform="matrix(1,0,0,1,527.0000000000002,803.7) translate(173.65 89.5)"/><use xlink:href="#q" transform="matrix(1,0,0,1,527.0000000000002,803.7) translate(212.55 89.5)"/><path d="M380 340h300v283H380z" stroke="#333" stroke-width="2" fill="#fff"/><path d="M380 377.6h300m-300 58.1h300" stroke="#333" stroke-width="2" fill="none"/><use xlink:href="#r" transform="matrix(1,0,0,1,388,348) translate(74.625 14.6)"/><use xlink:href="#s" transform="matrix(1,0,0,1,392,385.6) translate(0 25.1)"/><use xlink:href="#t" transform="matrix(1,0,0,1,392,385.6) translate(10.95 25.1)"/><use xlink:href="#u" transform="matrix(1,0,0,1,392,385.6) translate(64.9 25.1)"/><g><use xlink:href="#b" transform="matrix(1,0,0,1,392,443.70000000000005) translate(0 24.800000000000004)"/><use xlink:href="#v" transform="matrix(1,0,0,1,392,443.70000000000005) translate(15.5 24.800000000000004)"/><use xlink:href="#j" transform="matrix(1,0,0,1,392,443.70000000000005) translate(118.30000000000001 24.800000000000004)"/><use xlink:href="#b" transform="matrix(1,0,0,1,392,443.70000000000005) translate(0 46.400000000000006)"/><use xlink:href="#w" transform="matrix(1,0,0,1,392,443.70000000000005) translate(15.5 46.400000000000006)"/><use xlink:href="#b" transform="matrix(1,0,0,1,392,443.70000000000005) translate(0 68.00000000000001)"/><use xlink:href="#x" transform="matrix(1,0,0,1,392,443.70000000000005) translate(15.5 68.00000000000001)"/><use xlink:href="#b" transform="matrix(1,0,0,1,392,443.70000000000005) translate(0 89.60000000000002)"/><use xlink:href="#y" transform="matrix(1,0,0,1,392,443.70000000000005) translate(15.5 89.60000000000002)"/><use xlink:href="#z" transform="matrix(1,0,0,1,392,443.70000000000005) translate(0 111.20000000000002)"/><use xlink:href="#A" transform="matrix(1,0,0,1,392,443.70000000000005) translate(15.5 111.20000000000002)"/><use xlink:href="#b" transform="matrix(1,0,0,1,392,443.70000000000005) translate(0 132.8)"/><use xlink:href="#B" transform="matrix(1,0,0,1,392,443.70000000000005) translate(15.5 132.8)"/><use xlink:href="#b" transform="matrix(1,0,0,1,392,443.70000000000005) translate(0 154.4)"/><use xlink:href="#C" transform="matrix(1,0,0,1,392,443.70000000000005) translate(15.5 154.4)"/></g><path d="M780 340h380v280H780z" stroke="#333" stroke-width="2" fill="#fff"/><path d="M780 377.6h380m-380 67.1h380" stroke="#333" stroke-width="2" fill="none"/><g><use xlink:href="#D" transform="matrix(1,0,0,1,788.0000000000001,348) translate(127.64999999999999 14.6)"/></g><g><use xlink:href="#s" transform="matrix(1,0,0,1,792.0000000000001,385.6) translate(0 29.6)"/><use xlink:href="#E" transform="matrix(1,0,0,1,792.0000000000001,385.6) translate(10.95 29.6)"/><use xlink:href="#F" transform="matrix(1,0,0,1,792.0000000000001,385.6) translate(79.95 29.6)"/></g><g><use xlink:href="#b" transform="matrix(1,0,0,1,792.0000000000001,452.70000000000005) translate(0 29.6)"/><use xlink:href="#v" transform="matrix(1,0,0,1,792.0000000000001,452.70000000000005) translate(15.5 29.6)"/><use xlink:href="#G" transform="matrix(1,0,0,1,792.0000000000001,452.70000000000005) translate(118.30000000000001 29.6)"/><use xlink:href="#H" transform="matrix(1,0,0,1,792.0000000000001,452.70000000000005) translate(196.25 29.6)"/><use xlink:href="#s" transform="matrix(1,0,0,1,792.0000000000001,452.70000000000005) translate(0 51.2)"/><use xlink:href="#I" transform="matrix(1,0,0,1,792.0000000000001,452.70000000000005) translate(10.95 51.2)"/><use xlink:href="#s" transform="matrix(1,0,0,1,792.0000000000001,452.70000000000005) translate(0 72.80000000000001)"/><use xlink:href="#J" transform="matrix(1,0,0,1,792.0000000000001,452.70000000000005) translate(10.95 72.80000000000001)"/><use xlink:href="#j" transform="matrix(1,0,0,1,792.0000000000001,452.70000000000005) translate(212.64999999999998 72.80000000000001)"/><use xlink:href="#s" transform="matrix(1,0,0,1,792.0000000000001,452.70000000000005) translate(0 94.40000000000002)"/><use xlink:href="#K" transform="matrix(1,0,0,1,792.0000000000001,452.70000000000005) translate(10.95 94.40000000000002)"/><use xlink:href="#L" transform="matrix(1,0,0,1,792.0000000000001,452.70000000000005) translate(129.8 94.40000000000002)"/><use xlink:href="#n" transform="matrix(1,0,0,1,792.0000000000001,452.70000000000005) translate(0 116.00000000000001)"/><use xlink:href="#M" transform="matrix(1,0,0,1,792.0000000000001,452.70000000000005) translate(10.95 116.00000000000001)"/><use xlink:href="#j" transform="matrix(1,0,0,1,792.0000000000001,452.70000000000005) translate(200.7 116.00000000000001)"/><use xlink:href="#s" transform="matrix(1,0,0,1,792.0000000000001,452.70000000000005) translate(0 137.6)"/><use xlink:href="#N" transform="matrix(1,0,0,1,792.0000000000001,452.70000000000005) translate(10.95 137.6)"/></g><path d="M1260 340h400v280h-400z" stroke="#333" stroke-width="2" fill="#fff"/><path d="M1260 377.6h400m-400 110.3h400" stroke="#333" stroke-width="2" fill="none"/><g><use xlink:href="#O" transform="matrix(1,0,0,1,1268.0000000000005,348) translate(164.5 14.6)"/></g><g><use xlink:href="#s" transform="matrix(1,0,0,1,1272.0000000000005,385.6) translate(0 29.5)"/><use xlink:href="#P" transform="matrix(1,0,0,1,1272.0000000000005,385.6) translate(10.95 29.5)"/><use xlink:href="#Q" transform="matrix(1,0,0,1,1272.0000000000005,385.6) translate(74.95 29.5)"/><use xlink:href="#n" transform="matrix(1,0,0,1,1272.0000000000005,385.6) translate(0 51.1)"/><use xlink:href="#R" transform="matrix(1,0,0,1,1272.0000000000005,385.6) translate(10.95 51.1)"/><use xlink:href="#G" transform="matrix(1,0,0,1,1272.0000000000005,385.6) translate(71.9 51.1)"/><use xlink:href="#S" transform="matrix(1,0,0,1,1272.0000000000005,385.6) translate(149.85000000000002 51.1)"/><use xlink:href="#n" transform="matrix(1,0,0,1,1272.0000000000005,385.6) translate(0 72.7)"/><use xlink:href="#T" transform="matrix(1,0,0,1,1272.0000000000005,385.6) translate(10.95 72.7)"/><use xlink:href="#F" transform="matrix(1,0,0,1,1272.0000000000005,385.6) translate(77.95 72.7)"/></g><g><use xlink:href="#b" transform="matrix(1,0,0,1,1272.0000000000005,495.90000000000003) translate(0 29.19999999999999)"/><use xlink:href="#U" transform="matrix(1,0,0,1,1272.0000000000005,495.90000000000003) translate(15.5 29.19999999999999)"/><use xlink:href="#e" transform="matrix(1,0,0,1,1272.0000000000005,495.90000000000003) translate(128.35000000000002 29.19999999999999)"/><use xlink:href="#V" transform="matrix(1,0,0,1,1272.0000000000005,495.90000000000003) translate(182.25000000000003 29.19999999999999)"/><use xlink:href="#G" transform="matrix(1,0,0,1,1272.0000000000005,495.90000000000003) translate(223.20000000000005 29.19999999999999)"/><use xlink:href="#W" transform="matrix(1,0,0,1,1272.0000000000005,495.90000000000003) translate(301.15000000000003 29.19999999999999)"/><use xlink:href="#z" transform="matrix(1,0,0,1,1272.0000000000005,495.90000000000003) translate(0 50.79999999999999)"/><use xlink:href="#X" transform="matrix(1,0,0,1,1272.0000000000005,495.90000000000003) translate(15.5 50.79999999999999)"/><use xlink:href="#G" transform="matrix(1,0,0,1,1272.0000000000005,495.90000000000003) translate(99.35000000000001 50.79999999999999)"/><use xlink:href="#H" transform="matrix(1,0,0,1,1272.0000000000005,495.90000000000003) translate(177.3 50.79999999999999)"/><use xlink:href="#b" transform="matrix(1,0,0,1,1272.0000000000005,495.90000000000003) translate(0 72.39999999999999)"/><use xlink:href="#Y" transform="matrix(1,0,0,1,1272.0000000000005,495.90000000000003) translate(15.5 72.39999999999999)"/><use xlink:href="#b" transform="matrix(1,0,0,1,1272.0000000000005,495.90000000000003) translate(0 94)"/><use xlink:href="#Z" transform="matrix(1,0,0,1,1272.0000000000005,495.90000000000003) translate(15.5 94)"/></g><path d="M778.5 481.5h-96.6" stroke="#333" fill="none"/><path d="M779 482h-.5v-1h.5z" stroke="#333" stroke-width=".05" fill="#333"/><path d="M699.2 471.32l-17.22 10.18 17.22 10.18" stroke="#333" fill="none"/><path d="M1180 440h30v40h-30z" stroke="#000" stroke-opacity="0" stroke-width="2" fill="#fff" fill-opacity="0"/><g><use xlink:href="#aa" transform="matrix(1,0,0,1,1185,445) translate(4.339506172839508 23.288888888888884)"/></g><path d="M970 621.5v76.6" stroke="#333" fill="none"/><path d="M970.5 621.5h-1v-.5h1z" stroke="#333" stroke-width=".05" fill="#333"/><path d="M959.82 680.8L970 698.02l10.18-17.22M1258.5 480h-96.6" stroke="#333" fill="none"/><path d="M1259 480.5h-.5v-1h.5z" stroke="#333" stroke-width=".05" fill="#333"/><path d="M1179.2 469.82L1161.98 480l17.22 10.18" stroke="#333" fill="none"/><defs><path fill="#333" d="M67-125c0 53 21 87 73 88 37 1 54-22 65-47l45 17C233-25 199 4 140 4 58 4 20-42 15-125 8-235 124-281 211-232c18 10 29 29 36 50l-46 12c-8-25-30-41-62-41-52 0-71 34-72 86" id="ab"/><path fill="#333" d="M169-182c-1-43-94-46-97-3 18 66 151 10 154 114 3 95-165 93-204 36-6-8-10-19-12-30l50-8c3 46 112 56 116 5-17-69-150-10-154-114-4-87 153-88 188-35 5 8 8 18 10 28" id="ac"/><path fill="#333" d="M147 0H94L2-248h55l64 206c17-72 42-137 63-206h54" id="ad"/><g id="a"><use transform="matrix(0.05,0,0,0.05,0,0)" xlink:href="#ab"/><use transform="matrix(0.05,0,0,0.05,12.950000000000001,0)" xlink:href="#ac"/><use transform="matrix(0.05,0,0,0.05,24.950000000000003,0)" xlink:href="#ad"/></g><path fill="#333" d="M118-107v75H92v-75H18v-26h74v-75h26v75h74v26h-74" id="ae"/><use transform="matrix(0.05,0,0,0.05,0,0)" xlink:href="#ae" id="b"/><path fill="#333" d="M-5 72V49h209v23H-5" id="af"/><path fill="#333" d="M24-231v-30h32v30H24zM24 0v-190h32V0H24" id="ag"/><path fill="#333" d="M117-194c89-4 53 116 60 194h-32v-121c0-31-8-49-39-48C34-167 62-67 57 0H25l-1-190h30c1 10-1 24 2 32 11-22 29-35 61-36" id="ah"/><path fill="#333" d="M59-47c-2 24 18 29 38 22v24C64 9 27 4 27-40v-127H5v-23h24l9-43h21v43h35v23H59v120" id="ai"/><path fill="#333" d="M87 75C49 33 22-17 22-94c0-76 28-126 65-167h31c-38 41-64 92-64 168S80 34 118 75H87" id="aj"/><path fill="#333" d="M33-261c38 41 65 92 65 168S71 34 33 75H2C39 34 66-17 66-93S39-220 2-261h31" id="ak"/><g id="c"><use transform="matrix(0.05,0,0,0.05,0,0)" xlink:href="#af"/><use transform="matrix(0.05,0,0,0.05,10,0)" xlink:href="#af"/><use transform="matrix(0.05,0,0,0.05,20,0)" xlink:href="#ag"/><use transform="matrix(0.05,0,0,0.05,23.95,0)" xlink:href="#ah"/><use transform="matrix(0.05,0,0,0.05,33.95,0)" xlink:href="#ag"/><use transform="matrix(0.05,0,0,0.05,37.900000000000006,0)" xlink:href="#ai"/><use transform="matrix(0.05,0,0,0.05,42.900000000000006,0)" xlink:href="#af"/><use transform="matrix(0.05,0,0,0.05,52.900000000000006,0)" xlink:href="#af"/><use transform="matrix(0.05,0,0,0.05,62.900000000000006,0)" xlink:href="#aj"/><use transform="matrix(0.05,0,0,0.05,68.85000000000001,0)" xlink:href="#ak"/></g><path fill="#333" d="M206 0h-36l-40-164L89 0H53L-1-190h32L70-26l43-164h34l41 164 42-164h31" id="al"/><path fill="#333" d="M114-163C36-179 61-72 57 0H25l-1-190h30c1 12-1 29 2 39 6-27 23-49 58-41v29" id="am"/><path fill="#333" d="M100-194c63 0 86 42 84 106H49c0 40 14 67 53 68 26 1 43-12 49-29l28 8c-11 28-37 45-77 45C44 4 14-33 15-96c1-61 26-98 85-98zm52 81c6-60-76-77-97-28-3 7-6 17-6 28h103" id="an"/><path fill="#333" d="M240 0l2-218c-23 76-54 145-80 218h-23L58-218 59 0H30v-248h44l77 211c21-75 51-140 76-211h43V0h-30" id="ao"/><path fill="#333" d="M141-36C126-15 110 5 73 4 37 3 15-17 15-53c-1-64 63-63 125-63 3-35-9-54-41-54-24 1-41 7-42 31l-33-3c5-37 33-52 76-52 45 0 72 20 72 64v82c-1 20 7 32 28 27v20c-31 9-61-2-59-35zM48-53c0 20 12 33 32 33 41-3 63-29 60-74-43 2-92-5-92 41" id="ap"/><path fill="#333" d="M85-194c31 0 48 13 60 33l-1-100h32l1 261h-30c-2-10 0-23-3-31C134-8 116 4 85 4 32 4 16-35 15-94c0-66 23-100 70-100zm9 24c-40 0-46 34-46 75 0 40 6 74 45 74 42 0 51-32 51-76 0-42-9-74-50-73" id="aq"/><path fill="#333" d="M84 4C-5 8 30-112 23-190h32v120c0 31 7 50 39 49 72-2 45-101 50-169h31l1 190h-30c-1-10 1-25-2-33-11 22-28 36-60 37" id="ar"/><path fill="#333" d="M33-154v-36h34v36H33zM33 0v-36h34V0H33" id="as"/><g id="d"><use transform="matrix(0.05,0,0,0.05,0,0)" xlink:href="#al"/><use transform="matrix(0.05,0,0,0.05,12.950000000000001,0)" xlink:href="#am"/><use transform="matrix(0.05,0,0,0.05,18.900000000000002,0)" xlink:href="#ag"/><use transform="matrix(0.05,0,0,0.05,22.85,0)" xlink:href="#ai"/><use transform="matrix(0.05,0,0,0.05,27.85,0)" xlink:href="#an"/><use transform="matrix(0.05,0,0,0.05,37.85,0)" xlink:href="#ao"/><use transform="matrix(0.05,0,0,0.05,52.800000000000004,0)" xlink:href="#an"/><use transform="matrix(0.05,0,0,0.05,62.800000000000004,0)" xlink:href="#ai"/><use transform="matrix(0.05,0,0,0.05,67.80000000000001,0)" xlink:href="#ap"/><use transform="matrix(0.05,0,0,0.05,77.80000000000001,0)" xlink:href="#aq"/><use transform="matrix(0.05,0,0,0.05,87.80000000000001,0)" xlink:href="#ap"/><use transform="matrix(0.05,0,0,0.05,97.80000000000001,0)" xlink:href="#ai"/><use transform="matrix(0.05,0,0,0.05,102.80000000000001,0)" xlink:href="#ap"/><use transform="matrix(0.05,0,0,0.05,112.80000000000001,0)" xlink:href="#aj"/><use transform="matrix(0.05,0,0,0.05,118.75,0)" xlink:href="#ar"/><use transform="matrix(0.05,0,0,0.05,128.75,0)" xlink:href="#ar"/><use transform="matrix(0.05,0,0,0.05,138.75,0)" xlink:href="#ag"/><use transform="matrix(0.05,0,0,0.05,142.7,0)" xlink:href="#aq"/><use transform="matrix(0.05,0,0,0.05,152.7,0)" xlink:href="#as"/></g><path fill="#333" d="M135-143c-3-34-86-38-87 0 15 53 115 12 119 90S17 21 10-45l28-5c4 36 97 45 98 0-10-56-113-15-118-90-4-57 82-63 122-42 12 7 21 19 24 35" id="at"/><path fill="#333" d="M177-190C167-65 218 103 67 71c-23-6-38-20-44-43l32-5c15 47 100 32 89-28v-30C133-14 115 1 83 1 29 1 15-40 15-95c0-56 16-97 71-98 29-1 48 16 59 35 1-10 0-23 2-32h30zM94-22c36 0 50-32 50-73 0-42-14-75-50-75-39 0-46 34-46 75s6 73 46 73" id="au"/><path fill="#333" d="M68-38c1 34 0 65-14 84H32c9-13 17-26 17-46H33v-38h35" id="av"/><g id="e"><use transform="matrix(0.05,0,0,0.05,0,0)" xlink:href="#at"/><use transform="matrix(0.05,0,0,0.05,9,0)" xlink:href="#ai"/><use transform="matrix(0.05,0,0,0.05,14,0)" xlink:href="#am"/><use transform="matrix(0.05,0,0,0.05,19.95,0)" xlink:href="#ag"/><use transform="matrix(0.05,0,0,0.05,23.9,0)" xlink:href="#ah"/><use transform="matrix(0.05,0,0,0.05,33.9,0)" xlink:href="#au"/><use transform="matrix(0.05,0,0,0.05,43.9,0)" xlink:href="#av"/></g><path fill="#333" d="M100-194c62-1 85 37 85 99 1 63-27 99-86 99S16-35 15-95c0-66 28-99 85-99zM99-20c44 1 53-31 53-75 0-43-8-75-51-75s-53 32-53 75 10 74 51 75" id="aw"/><g id="f"><use transform="matrix(0.05,0,0,0.05,0,0)" xlink:href="#al"/><use transform="matrix(0.05,0,0,0.05,12.950000000000001,0)" xlink:href="#ag"/><use transform="matrix(0.05,0,0,0.05,16.900000000000002,0)" xlink:href="#ah"/><use transform="matrix(0.05,0,0,0.05,26.900000000000002,0)" xlink:href="#aq"/><use transform="matrix(0.05,0,0,0.05,36.900000000000006,0)" xlink:href="#aw"/><use transform="matrix(0.05,0,0,0.05,46.900000000000006,0)" xlink:href="#al"/><use transform="matrix(0.05,0,0,0.05,59.85,0)" xlink:href="#as"/></g><path fill="#333" d="M210-169c-67 3-38 105-44 169h-31v-121c0-29-5-50-35-48C34-165 62-65 56 0H25l-1-190h30c1 10-1 24 2 32 10-44 99-50 107 0 11-21 27-35 58-36 85-2 47 119 55 194h-31v-121c0-29-5-49-35-48" id="ax"/><path fill="#333" d="M115-194c55 1 70 41 70 98S169 2 115 4C84 4 66-9 55-30l1 105H24l-1-265h31l2 30c10-21 28-34 59-34zm-8 174c40 0 45-34 45-75s-6-73-45-74c-42 0-51 32-51 76 0 43 10 73 51 73" id="ay"/><path fill="#333" d="M160-131c35 5 61 23 61 61C221 17 115-2 30 0v-248c76 3 177-17 177 60 0 33-19 50-47 57zm-97-11c50-1 110 9 110-42 0-47-63-36-110-37v79zm0 115c55-2 124 14 124-45 0-56-70-42-124-44v89" id="az"/><g id="g"><use transform="matrix(0.05,0,0,0.05,0,0)" xlink:href="#ai"/><use transform="matrix(0.05,0,0,0.05,5,0)" xlink:href="#ag"/><use transform="matrix(0.05,0,0,0.05,8.95,0)" xlink:href="#ax"/><use transform="matrix(0.05,0,0,0.05,23.9,0)" xlink:href="#an"/><use transform="matrix(0.05,0,0,0.05,33.9,0)" xlink:href="#at"/><use transform="matrix(0.05,0,0,0.05,42.9,0)" xlink:href="#ai"/><use transform="matrix(0.05,0,0,0.05,47.9,0)" xlink:href="#ap"/><use transform="matrix(0.05,0,0,0.05,57.900000000000006,0)" xlink:href="#ax"/><use transform="matrix(0.05,0,0,0.05,72.85,0)" xlink:href="#ay"/><use transform="matrix(0.05,0,0,0.05,82.85,0)" xlink:href="#az"/><use transform="matrix(0.05,0,0,0.05,94.85,0)" xlink:href="#an"/><use transform="matrix(0.05,0,0,0.05,104.84999999999998,0)" xlink:href="#au"/><use transform="matrix(0.05,0,0,0.05,114.84999999999998,0)" xlink:href="#ag"/><use transform="matrix(0.05,0,0,0.05,118.80000000000001,0)" xlink:href="#ah"/><use transform="matrix(0.05,0,0,0.05,128.8,0)" xlink:href="#as"/></g><path fill="#333" d="M30 0v-248h187v28H63v79h144v27H63v87h162V0H30" id="aA"/><g id="h"><use transform="matrix(0.05,0,0,0.05,0,0)" xlink:href="#ai"/><use transform="matrix(0.05,0,0,0.05,5,0)" xlink:href="#ag"/><use transform="matrix(0.05,0,0,0.05,8.95,0)" xlink:href="#ax"/><use transform="matrix(0.05,0,0,0.05,23.9,0)" xlink:href="#an"/><use transform="matrix(0.05,0,0,0.05,33.9,0)" xlink:href="#at"/><use transform="matrix(0.05,0,0,0.05,42.9,0)" xlink:href="#ai"/><use transform="matrix(0.05,0,0,0.05,47.9,0)" xlink:href="#ap"/><use transform="matrix(0.05,0,0,0.05,57.900000000000006,0)" xlink:href="#ax"/><use transform="matrix(0.05,0,0,0.05,72.85,0)" xlink:href="#ay"/><use transform="matrix(0.05,0,0,0.05,82.85,0)" xlink:href="#aA"/><use transform="matrix(0.05,0,0,0.05,94.85,0)" xlink:href="#ah"/><use transform="matrix(0.05,0,0,0.05,104.84999999999998,0)" xlink:href="#aq"/><use transform="matrix(0.05,0,0,0.05,114.84999999999998,0)" xlink:href="#as"/></g><path fill="#333" d="M205 0l-28-72H64L36 0H1l101-248h38L239 0h-34zm-38-99l-47-123c-12 45-31 82-46 123h93" id="aB"/><g id="i"><use transform="matrix(0.05,0,0,0.05,0,0)" xlink:href="#ag"/><use transform="matrix(0.05,0,0,0.05,3.95,0)" xlink:href="#ay"/><use transform="matrix(0.05,0,0,0.05,13.949999999999998,0)" xlink:href="#aB"/><use transform="matrix(0.05,0,0,0.05,25.950000000000003,0)" xlink:href="#aq"/><use transform="matrix(0.05,0,0,0.05,35.95,0)" xlink:href="#aq"/><use transform="matrix(0.05,0,0,0.05,45.95,0)" xlink:href="#am"/><use transform="matrix(0.05,0,0,0.05,51.900000000000006,0)" xlink:href="#an"/><use transform="matrix(0.05,0,0,0.05,61.900000000000006,0)" xlink:href="#at"/><use transform="matrix(0.05,0,0,0.05,70.9,0)" xlink:href="#at"/><use transform="matrix(0.05,0,0,0.05,79.9,0)" xlink:href="#as"/></g><g id="j"><use transform="matrix(0.05,0,0,0.05,0,0)" xlink:href="#at"/><use transform="matrix(0.05,0,0,0.05,9,0)" xlink:href="#ai"/><use transform="matrix(0.05,0,0,0.05,14,0)" xlink:href="#am"/><use transform="matrix(0.05,0,0,0.05,19.95,0)" xlink:href="#ag"/><use transform="matrix(0.05,0,0,0.05,23.9,0)" xlink:href="#ah"/><use transform="matrix(0.05,0,0,0.05,33.9,0)" xlink:href="#au"/><use transform="matrix(0.05,0,0,0.05,43.9,0)" xlink:href="#ak"/></g><path fill="#333" d="M30 0v-248h33v221h125V0H30" id="aC"/><g id="k"><use transform="matrix(0.05,0,0,0.05,0,0)" xlink:href="#al"/><use transform="matrix(0.05,0,0,0.05,12.950000000000001,0)" xlink:href="#am"/><use transform="matrix(0.05,0,0,0.05,18.900000000000002,0)" xlink:href="#ag"/><use transform="matrix(0.05,0,0,0.05,22.85,0)" xlink:href="#ai"/><use transform="matrix(0.05,0,0,0.05,27.85,0)" xlink:href="#an"/><use transform="matrix(0.05,0,0,0.05,37.85,0)" xlink:href="#aC"/><use transform="matrix(0.05,0,0,0.05,47.85,0)" xlink:href="#aw"/><use transform="matrix(0.05,0,0,0.05,57.85,0)" xlink:href="#au"/><use transform="matrix(0.05,0,0,0.05,67.85,0)" xlink:href="#aj"/><use transform="matrix(0.05,0,0,0.05,73.8,0)" xlink:href="#ar"/><use transform="matrix(0.05,0,0,0.05,83.8,0)" xlink:href="#ar"/><use transform="matrix(0.05,0,0,0.05,93.8,0)" xlink:href="#ag"/><use transform="matrix(0.05,0,0,0.05,97.75,0)" xlink:href="#aq"/><use transform="matrix(0.05,0,0,0.05,107.75,0)" xlink:href="#as"/></g><path fill="#333" d="M24 0v-261h32V0H24" id="aD"/><g id="l"><use transform="matrix(0.05,0,0,0.05,0,0)" xlink:href="#aD"/><use transform="matrix(0.05,0,0,0.05,3.95,0)" xlink:href="#aw"/><use transform="matrix(0.05,0,0,0.05,13.949999999999998,0)" xlink:href="#au"/><use transform="matrix(0.05,0,0,0.05,23.95,0)" xlink:href="#as"/></g><g id="m"><use transform="matrix(0.05,0,0,0.05,0,0)" xlink:href="#at"/><use transform="matrix(0.05,0,0,0.05,9,0)" xlink:href="#ai"/><use transform="matrix(0.05,0,0,0.05,14,0)" xlink:href="#am"/><use transform="matrix(0.05,0,0,0.05,19.95,0)" xlink:href="#ag"/><use transform="matrix(0.05,0,0,0.05,23.9,0)" xlink:href="#ah"/><use transform="matrix(0.05,0,0,0.05,33.9,0)" xlink:href="#au"/><use transform="matrix(0.05,0,0,0.05,43.9,0)" xlink:href="#ak"/></g><path fill="#333" d="M16-82v-28h88v28H16" id="aE"/><use transform="matrix(0.05,0,0,0.05,0,0)" xlink:href="#aE" id="n"/><path fill="#333" d="M106-169C34-169 62-67 57 0H25v-261h32l-1 103c12-21 28-36 61-36 89 0 53 116 60 194h-32v-121c2-32-8-49-39-48" id="aF"/><g id="o"><use transform="matrix(0.05,0,0,0.05,0,0)" xlink:href="#af"/><use transform="matrix(0.05,0,0,0.05,10,0)" xlink:href="#af"/><use transform="matrix(0.05,0,0,0.05,20,0)" xlink:href="#al"/><use transform="matrix(0.05,0,0,0.05,32.95,0)" xlink:href="#am"/><use transform="matrix(0.05,0,0,0.05,38.900000000000006,0)" xlink:href="#ag"/><use transform="matrix(0.05,0,0,0.05,42.85000000000001,0)" xlink:href="#ai"/><use transform="matrix(0.05,0,0,0.05,47.85000000000001,0)" xlink:href="#an"/><use transform="matrix(0.05,0,0,0.05,57.85,0)" xlink:href="#aj"/><use transform="matrix(0.05,0,0,0.05,63.80000000000001,0)" xlink:href="#ay"/><use transform="matrix(0.05,0,0,0.05,73.80000000000001,0)" xlink:href="#ap"/><use transform="matrix(0.05,0,0,0.05,83.80000000000001,0)" xlink:href="#ai"/><use transform="matrix(0.05,0,0,0.05,88.80000000000001,0)" xlink:href="#aF"/><use transform="matrix(0.05,0,0,0.05,98.80000000000001,0)" xlink:href="#as"/></g><g id="p"><use transform="matrix(0.05,0,0,0.05,0,0)" xlink:href="#am"/><use transform="matrix(0.05,0,0,0.05,5.95,0)" xlink:href="#aw"/><use transform="matrix(0.05,0,0,0.05,15.949999999999998,0)" xlink:href="#al"/><use transform="matrix(0.05,0,0,0.05,28.899999999999995,0)" xlink:href="#as"/></g><path fill="#333" d="M179-190L93 31C79 59 56 82 12 73V49c39 6 53-20 64-50L1-190h34L92-34l54-156h33" id="aG"/><g id="q"><use transform="matrix(0.05,0,0,0.05,0,0)" xlink:href="#ap"/><use transform="matrix(0.05,0,0,0.05,10,0)" xlink:href="#am"/><use transform="matrix(0.05,0,0,0.05,15.949999999999998,0)" xlink:href="#am"/><use transform="matrix(0.05,0,0,0.05,21.9,0)" xlink:href="#ap"/><use transform="matrix(0.05,0,0,0.05,31.899999999999995,0)" xlink:href="#aG"/><use transform="matrix(0.05,0,0,0.05,40.9,0)" xlink:href="#ak"/></g><path fill="#333" d="M24 0v-248h195v40H76v63h132v40H76v65h150V0H24" id="aH"/><path fill="#333" d="M144 0l-44-69L55 0H2l70-98-66-92h53l41 62 40-62h54l-67 91 71 99h-54" id="aI"/><path fill="#333" d="M115-3C79 11 28 4 28-45v-112H4v-33h27l15-45h31v45h36v33H77v99c-1 23 16 31 38 25v30" id="aJ"/><path fill="#333" d="M135-150c-39-12-60 13-60 57V0H25l-1-190h47c2 13-1 29 3 40 6-28 27-53 61-41v41" id="aK"/><path fill="#333" d="M133-34C117-15 103 5 69 4 32 3 11-16 11-54c-1-60 55-63 116-61 1-26-3-47-28-47-18 1-26 9-28 27l-52-2c7-38 36-58 82-57s74 22 75 68l1 82c-1 14 12 18 25 15v27c-30 8-71 5-69-32zm-48 3c29 0 43-24 42-57-32 0-66-3-65 30 0 17 8 27 23 27" id="aL"/><path fill="#333" d="M190-63c-7 42-38 67-86 67-59 0-84-38-90-98-12-110 154-137 174-36l-49 2c-2-19-15-32-35-32-30 0-35 28-38 64-6 74 65 87 74 30" id="aM"/><path fill="#333" d="M76-208v77h127v40H76V0H24v-248h183v40H76" id="aN"/><path fill="#333" d="M185-48c-13 30-37 53-82 52C43 2 14-33 14-96s30-98 90-98c62 0 83 45 84 108H66c0 31 8 55 39 56 18 0 30-7 34-22zm-45-69c5-46-57-63-70-21-2 6-4 13-4 21h74" id="aO"/><path fill="#333" d="M85 4C-2 5 27-109 22-190h50c7 57-23 150 33 157 60-5 35-97 40-157h50l1 190h-47c-2-12 1-28-3-38-12 25-28 42-61 42" id="aP"/><path fill="#333" d="M137-138c1-29-70-34-71-4 15 46 118 7 119 86 1 83-164 76-172 9l43-7c4 19 20 25 44 25 33 8 57-30 24-41C81-84 22-81 20-136c-2-80 154-74 161-7" id="aQ"/><g id="r"><use transform="matrix(0.05,0,0,0.05,0,0)" xlink:href="#aH"/><use transform="matrix(0.05,0,0,0.05,12,0)" xlink:href="#aI"/><use transform="matrix(0.05,0,0,0.05,22,0)" xlink:href="#aJ"/><use transform="matrix(0.05,0,0,0.05,27.950000000000003,0)" xlink:href="#aK"/><use transform="matrix(0.05,0,0,0.05,34.95,0)" xlink:href="#aL"/><use transform="matrix(0.05,0,0,0.05,44.95,0)" xlink:href="#aM"/><use transform="matrix(0.05,0,0,0.05,54.95,0)" xlink:href="#aJ"/><use transform="matrix(0.05,0,0,0.05,60.900000000000006,0)" xlink:href="#aN"/><use transform="matrix(0.05,0,0,0.05,71.85000000000001,0)" xlink:href="#aO"/><use transform="matrix(0.05,0,0,0.05,81.85000000000001,0)" xlink:href="#aL"/><use transform="matrix(0.05,0,0,0.05,91.85000000000001,0)" xlink:href="#aJ"/><use transform="matrix(0.05,0,0,0.05,97.80000000000001,0)" xlink:href="#aP"/><use transform="matrix(0.05,0,0,0.05,108.75,0)" xlink:href="#aK"/><use transform="matrix(0.05,0,0,0.05,115.75,0)" xlink:href="#aO"/><use transform="matrix(0.05,0,0,0.05,125.75,0)" xlink:href="#aQ"/></g><use transform="matrix(0.05,0,0,0.05,0,0)" xlink:href="#aE" id="s"/><g id="t"><use transform="matrix(0.05,0,0,0.05,0,0)" xlink:href="#af"/><use transform="matrix(0.05,0,0,0.05,10,0)" xlink:href="#af"/><use transform="matrix(0.05,0,0,0.05,20,0)" xlink:href="#aD"/><use transform="matrix(0.05,0,0,0.05,23.95,0)" xlink:href="#aw"/><use transform="matrix(0.05,0,0,0.05,33.95,0)" xlink:href="#au"/><use transform="matrix(0.05,0,0,0.05,43.95,0)" xlink:href="#as"/></g><g id="u"><use transform="matrix(0.05,0,0,0.05,0,0)" xlink:href="#at"/><use transform="matrix(0.05,0,0,0.05,9,0)" xlink:href="#ai"/><use transform="matrix(0.05,0,0,0.05,14,0)" xlink:href="#am"/><use transform="matrix(0.05,0,0,0.05,19.95,0)" xlink:href="#ag"/><use transform="matrix(0.05,0,0,0.05,23.9,0)" xlink:href="#ah"/><use transform="matrix(0.05,0,0,0.05,33.9,0)" xlink:href="#au"/></g><g id="v"><use transform="matrix(0.05,0,0,0.05,0,0)" xlink:href="#af"/><use transform="matrix(0.05,0,0,0.05,10,0)" xlink:href="#af"/><use transform="matrix(0.05,0,0,0.05,20,0)" xlink:href="#ag"/><use transform="matrix(0.05,0,0,0.05,23.95,0)" xlink:href="#ah"/><use transform="matrix(0.05,0,0,0.05,33.95,0)" xlink:href="#ag"/><use transform="matrix(0.05,0,0,0.05,37.900000000000006,0)" xlink:href="#ai"/><use transform="matrix(0.05,0,0,0.05,42.900000000000006,0)" xlink:href="#af"/><use transform="matrix(0.05,0,0,0.05,52.900000000000006,0)" xlink:href="#af"/><use transform="matrix(0.05,0,0,0.05,62.900000000000006,0)" xlink:href="#aj"/><use transform="matrix(0.05,0,0,0.05,68.85000000000001,0)" xlink:href="#aD"/><use transform="matrix(0.05,0,0,0.05,72.80000000000001,0)" xlink:href="#aw"/><use transform="matrix(0.05,0,0,0.05,82.80000000000001,0)" xlink:href="#au"/><use transform="matrix(0.05,0,0,0.05,92.80000000000001,0)" xlink:href="#as"/></g><path fill="#333" d="M232-93c-1 65-40 97-104 97C67 4 28-28 28-90v-158h33c8 89-33 224 67 224 102 0 64-133 71-224h33v155" id="aR"/><path fill="#333" d="M33 0v-248h34V0H33" id="aS"/><path fill="#333" d="M30-248c118-7 216 8 213 122C240-48 200 0 122 0H30v-248zM63-27c89 8 146-16 146-99s-60-101-146-95v194" id="aT"/><g id="w"><use transform="matrix(0.05,0,0,0.05,0,0)" xlink:href="#au"/><use transform="matrix(0.05,0,0,0.05,10,0)" xlink:href="#an"/><use transform="matrix(0.05,0,0,0.05,20,0)" xlink:href="#ai"/><use transform="matrix(0.05,0,0,0.05,25,0)" xlink:href="#aR"/><use transform="matrix(0.05,0,0,0.05,37.95,0)" xlink:href="#aR"/><use transform="matrix(0.05,0,0,0.05,50.900000000000006,0)" xlink:href="#aS"/><use transform="matrix(0.05,0,0,0.05,55.900000000000006,0)" xlink:href="#aT"/><use transform="matrix(0.05,0,0,0.05,68.85000000000001,0)" xlink:href="#aj"/><use transform="matrix(0.05,0,0,0.05,74.80000000000001,0)" xlink:href="#ak"/></g><path fill="#333" d="M266 0h-40l-56-210L115 0H75L2-248h35L96-30l15-64 43-154h32l59 218 59-218h35" id="aU"/><g id="x"><use transform="matrix(0.05,0,0,0.05,0,0)" xlink:href="#au"/><use transform="matrix(0.05,0,0,0.05,10,0)" xlink:href="#an"/><use transform="matrix(0.05,0,0,0.05,20,0)" xlink:href="#ai"/><use transform="matrix(0.05,0,0,0.05,25,0)" xlink:href="#aU"/><use transform="matrix(0.05,0,0,0.05,41.95,0)" xlink:href="#ag"/><use transform="matrix(0.05,0,0,0.05,45.900000000000006,0)" xlink:href="#ah"/><use transform="matrix(0.05,0,0,0.05,55.900000000000006,0)" xlink:href="#aq"/><use transform="matrix(0.05,0,0,0.05,65.9,0)" xlink:href="#aw"/><use transform="matrix(0.05,0,0,0.05,75.9,0)" xlink:href="#al"/><use transform="matrix(0.05,0,0,0.05,88.85000000000001,0)" xlink:href="#aj"/><use transform="matrix(0.05,0,0,0.05,94.80000000000001,0)" xlink:href="#ak"/></g><path fill="#333" d="M127-220V0H93v-220H8v-28h204v28h-85" id="aV"/><g id="y"><use transform="matrix(0.05,0,0,0.05,0,0)" xlink:href="#au"/><use transform="matrix(0.05,0,0,0.05,10,0)" xlink:href="#an"/><use transform="matrix(0.05,0,0,0.05,20,0)" xlink:href="#ai"/><use transform="matrix(0.05,0,0,0.05,25,0)" xlink:href="#aV"/><use transform="matrix(0.05,0,0,0.05,35.300000000000004,0)" xlink:href="#ag"/><use transform="matrix(0.05,0,0,0.05,39.25000000000001,0)" xlink:href="#ax"/><use transform="matrix(0.05,0,0,0.05,54.20000000000002,0)" xlink:href="#an"/><use transform="matrix(0.05,0,0,0.05,64.20000000000002,0)" xlink:href="#at"/><use transform="matrix(0.05,0,0,0.05,73.20000000000002,0)" xlink:href="#ai"/><use transform="matrix(0.05,0,0,0.05,78.20000000000002,0)" xlink:href="#ap"/><use transform="matrix(0.05,0,0,0.05,88.20000000000002,0)" xlink:href="#ax"/><use transform="matrix(0.05,0,0,0.05,103.15000000000003,0)" xlink:href="#ay"/><use transform="matrix(0.05,0,0,0.05,113.15000000000003,0)" xlink:href="#az"/><use transform="matrix(0.05,0,0,0.05,125.15000000000003,0)" xlink:href="#an"/><use transform="matrix(0.05,0,0,0.05,135.15000000000003,0)" xlink:href="#au"/><use transform="matrix(0.05,0,0,0.05,145.15000000000003,0)" xlink:href="#ag"/><use transform="matrix(0.05,0,0,0.05,149.10000000000002,0)" xlink:href="#ah"/><use transform="matrix(0.05,0,0,0.05,159.10000000000002,0)" xlink:href="#aj"/><use transform="matrix(0.05,0,0,0.05,165.05,0)" xlink:href="#ak"/></g><use transform="matrix(0.05,0,0,0.05,0,0)" xlink:href="#ae" id="z"/><path fill="#333" d="M141 0L90-78 38 0H4l68-98-65-92h35l48 74 47-74h35l-64 92 68 98h-35" id="aW"/><g id="A"><use transform="matrix(0.05,0,0,0.05,0,0)" xlink:href="#au"/><use transform="matrix(0.05,0,0,0.05,10,0)" xlink:href="#an"/><use transform="matrix(0.05,0,0,0.05,20,0)" xlink:href="#ai"/><use transform="matrix(0.05,0,0,0.05,25,0)" xlink:href="#aC"/><use transform="matrix(0.05,0,0,0.05,35,0)" xlink:href="#aw"/><use transform="matrix(0.05,0,0,0.05,45,0)" xlink:href="#au"/><use transform="matrix(0.05,0,0,0.05,55,0)" xlink:href="#aV"/><use transform="matrix(0.05,0,0,0.05,63.95,0)" xlink:href="#an"/><use transform="matrix(0.05,0,0,0.05,73.95,0)" xlink:href="#aW"/><use transform="matrix(0.05,0,0,0.05,82.95,0)" xlink:href="#ai"/><use transform="matrix(0.05,0,0,0.05,87.95,0)" xlink:href="#aj"/><use transform="matrix(0.05,0,0,0.05,93.9,0)" xlink:href="#ak"/></g><g id="B"><use transform="matrix(0.05,0,0,0.05,0,0)" xlink:href="#au"/><use transform="matrix(0.05,0,0,0.05,10,0)" xlink:href="#an"/><use transform="matrix(0.05,0,0,0.05,20,0)" xlink:href="#ai"/><use transform="matrix(0.05,0,0,0.05,25,0)" xlink:href="#aV"/><use transform="matrix(0.05,0,0,0.05,35.300000000000004,0)" xlink:href="#ag"/><use transform="matrix(0.05,0,0,0.05,39.25000000000001,0)" xlink:href="#ax"/><use transform="matrix(0.05,0,0,0.05,54.20000000000002,0)" xlink:href="#an"/><use transform="matrix(0.05,0,0,0.05,64.20000000000002,0)" xlink:href="#at"/><use transform="matrix(0.05,0,0,0.05,73.20000000000002,0)" xlink:href="#ai"/><use transform="matrix(0.05,0,0,0.05,78.20000000000002,0)" xlink:href="#ap"/><use transform="matrix(0.05,0,0,0.05,88.20000000000002,0)" xlink:href="#ax"/><use transform="matrix(0.05,0,0,0.05,103.15000000000003,0)" xlink:href="#ay"/><use transform="matrix(0.05,0,0,0.05,113.15000000000003,0)" xlink:href="#aA"/><use transform="matrix(0.05,0,0,0.05,125.15000000000003,0)" xlink:href="#ah"/><use transform="matrix(0.05,0,0,0.05,135.15000000000003,0)" xlink:href="#aq"/><use transform="matrix(0.05,0,0,0.05,145.15000000000003,0)" xlink:href="#aj"/><use transform="matrix(0.05,0,0,0.05,151.10000000000002,0)" xlink:href="#ak"/></g><g id="C"><use transform="matrix(0.05,0,0,0.05,0,0)" xlink:href="#au"/><use transform="matrix(0.05,0,0,0.05,10,0)" xlink:href="#an"/><use transform="matrix(0.05,0,0,0.05,20,0)" xlink:href="#ai"/><use transform="matrix(0.05,0,0,0.05,25,0)" xlink:href="#aS"/><use transform="matrix(0.05,0,0,0.05,30,0)" xlink:href="#ay"/><use transform="matrix(0.05,0,0,0.05,40,0)" xlink:href="#aB"/><use transform="matrix(0.05,0,0,0.05,52,0)" xlink:href="#aq"/><use transform="matrix(0.05,0,0,0.05,62,0)" xlink:href="#aq"/><use transform="matrix(0.05,0,0,0.05,72,0)" xlink:href="#am"/><use transform="matrix(0.05,0,0,0.05,77.95,0)" xlink:href="#an"/><use transform="matrix(0.05,0,0,0.05,87.95,0)" xlink:href="#at"/><use transform="matrix(0.05,0,0,0.05,96.95,0)" xlink:href="#at"/><use transform="matrix(0.05,0,0,0.05,105.95,0)" xlink:href="#aj"/><use transform="matrix(0.05,0,0,0.05,111.9,0)" xlink:href="#ak"/></g><path fill="#333" d="M25 0v-261h50V0H25" id="aX"/><path fill="#333" d="M25-224v-37h50v37H25zM25 0v-190h50V0H25" id="aY"/><path fill="#333" d="M135-194c87-1 58 113 63 194h-50c-7-57 23-157-34-157-59 0-34 97-39 157H25l-1-190h47c2 12-1 28 3 38 12-26 28-41 61-42" id="aZ"/><path fill="#333" d="M136-208V0H84v-208H4v-40h212v40h-80" id="ba"/><path fill="#333" d="M114-157C55-157 80-60 75 0H25v-261h50l-1 109c12-26 28-41 61-42 86-1 58 113 63 194h-50c-7-57 23-157-34-157" id="bb"/><path fill="#333" d="M88-194c31-1 46 15 58 34l-1-101h50l1 261h-48c-2-10 0-23-3-31C134-8 116 4 84 4 32 4 16-41 15-95c0-56 19-97 73-99zm17 164c33 0 40-30 41-66 1-37-9-64-41-64s-38 30-39 65c0 43 13 65 39 65" id="bc"/><g id="D"><use transform="matrix(0.05,0,0,0.05,0,0)" xlink:href="#ab"/><use transform="matrix(0.05,0,0,0.05,12.950000000000001,0)" xlink:href="#aX"/><use transform="matrix(0.05,0,0,0.05,17.950000000000003,0)" xlink:href="#aY"/><use transform="matrix(0.05,0,0,0.05,22.950000000000003,0)" xlink:href="#aO"/><use transform="matrix(0.05,0,0,0.05,32.95,0)" xlink:href="#aZ"/><use transform="matrix(0.05,0,0,0.05,43.900000000000006,0)" xlink:href="#aJ"/><use transform="matrix(0.05,0,0,0.05,49.85000000000001,0)" xlink:href="#ba"/><use transform="matrix(0.05,0,0,0.05,60.80000000000001,0)" xlink:href="#bb"/><use transform="matrix(0.05,0,0,0.05,71.75000000000001,0)" xlink:href="#aK"/><use transform="matrix(0.05,0,0,0.05,78.75000000000001,0)" xlink:href="#aO"/><use transform="matrix(0.05,0,0,0.05,88.75000000000001,0)" xlink:href="#aL"/><use transform="matrix(0.05,0,0,0.05,98.75000000000001,0)" xlink:href="#bc"/></g><path fill="#333" d="M96-169c-40 0-48 33-48 73s9 75 48 75c24 0 41-14 43-38l32 2c-6 37-31 61-74 61-59 0-76-41-82-99-10-93 101-131 147-64 4 7 5 14 7 22l-32 3c-4-21-16-35-41-35" id="bd"/><g id="E"><use transform="matrix(0.05,0,0,0.05,0,0)" xlink:href="#af"/><use transform="matrix(0.05,0,0,0.05,10,0)" xlink:href="#af"/><use transform="matrix(0.05,0,0,0.05,20,0)" xlink:href="#bd"/><use transform="matrix(0.05,0,0,0.05,29,0)" xlink:href="#aw"/><use transform="matrix(0.05,0,0,0.05,39,0)" xlink:href="#ah"/><use transform="matrix(0.05,0,0,0.05,49,0)" xlink:href="#ah"/><use transform="matrix(0.05,0,0,0.05,59,0)" xlink:href="#as"/></g><path fill="#333" d="M143 0L79-87 56-68V0H24v-261h32v163l83-92h37l-77 82L181 0h-38" id="be"/><g id="F"><use transform="matrix(0.05,0,0,0.05,0,0)" xlink:href="#at"/><use transform="matrix(0.05,0,0,0.05,9,0)" xlink:href="#aw"/><use transform="matrix(0.05,0,0,0.05,19,0)" xlink:href="#bd"/><use transform="matrix(0.05,0,0,0.05,28,0)" xlink:href="#be"/><use transform="matrix(0.05,0,0,0.05,37,0)" xlink:href="#an"/><use transform="matrix(0.05,0,0,0.05,47,0)" xlink:href="#ai"/></g><g id="G"><use transform="matrix(0.05,0,0,0.05,0,0)" xlink:href="#ar"/><use transform="matrix(0.05,0,0,0.05,10,0)" xlink:href="#ah"/><use transform="matrix(0.05,0,0,0.05,20,0)" xlink:href="#at"/><use transform="matrix(0.05,0,0,0.05,29,0)" xlink:href="#ag"/><use transform="matrix(0.05,0,0,0.05,32.95,0)" xlink:href="#au"/><use transform="matrix(0.05,0,0,0.05,42.95,0)" xlink:href="#ah"/><use transform="matrix(0.05,0,0,0.05,52.95,0)" xlink:href="#an"/><use transform="matrix(0.05,0,0,0.05,62.95,0)" xlink:href="#aq"/></g><g id="H"><use transform="matrix(0.05,0,0,0.05,0,0)" xlink:href="#ag"/><use transform="matrix(0.05,0,0,0.05,3.95,0)" xlink:href="#ah"/><use transform="matrix(0.05,0,0,0.05,13.949999999999998,0)" xlink:href="#ai"/><use transform="matrix(0.05,0,0,0.05,18.95,0)" xlink:href="#ak"/></g><path fill="#333" d="M108 0H70L1-190h34L89-25l56-165h34" id="bf"/><g id="I"><use transform="matrix(0.05,0,0,0.05,0,0)" xlink:href="#af"/><use transform="matrix(0.05,0,0,0.05,10,0)" xlink:href="#af"/><use transform="matrix(0.05,0,0,0.05,20,0)" xlink:href="#am"/><use transform="matrix(0.05,0,0,0.05,25.950000000000003,0)" xlink:href="#an"/><use transform="matrix(0.05,0,0,0.05,35.95,0)" xlink:href="#bd"/><use transform="matrix(0.05,0,0,0.05,44.95,0)" xlink:href="#an"/><use transform="matrix(0.05,0,0,0.05,54.95,0)" xlink:href="#ag"/><use transform="matrix(0.05,0,0,0.05,58.900000000000006,0)" xlink:href="#bf"/><use transform="matrix(0.05,0,0,0.05,67.9,0)" xlink:href="#an"/><use transform="matrix(0.05,0,0,0.05,77.9,0)" xlink:href="#aj"/><use transform="matrix(0.05,0,0,0.05,83.85000000000001,0)" xlink:href="#ak"/></g><path fill="#333" d="M30-248c87 1 191-15 191 75 0 78-77 80-158 76V0H30v-248zm33 125c57 0 124 11 124-50 0-59-68-47-124-48v98" id="bg"/><g id="J"><use transform="matrix(0.05,0,0,0.05,0,0)" xlink:href="#af"/><use transform="matrix(0.05,0,0,0.05,10,0)" xlink:href="#af"/><use transform="matrix(0.05,0,0,0.05,20,0)" xlink:href="#bd"/><use transform="matrix(0.05,0,0,0.05,29,0)" xlink:href="#aw"/><use transform="matrix(0.05,0,0,0.05,39,0)" xlink:href="#ah"/><use transform="matrix(0.05,0,0,0.05,49,0)" xlink:href="#at"/><use transform="matrix(0.05,0,0,0.05,58,0)" xlink:href="#aw"/><use transform="matrix(0.05,0,0,0.05,68,0)" xlink:href="#aD"/><use transform="matrix(0.05,0,0,0.05,71.95,0)" xlink:href="#an"/><use transform="matrix(0.05,0,0,0.05,81.95,0)" xlink:href="#bg"/><use transform="matrix(0.05,0,0,0.05,93.95,0)" xlink:href="#am"/><use transform="matrix(0.05,0,0,0.05,99.9,0)" xlink:href="#ag"/><use transform="matrix(0.05,0,0,0.05,103.85000000000001,0)" xlink:href="#ah"/><use transform="matrix(0.05,0,0,0.05,113.85000000000001,0)" xlink:href="#ai"/><use transform="matrix(0.05,0,0,0.05,118.85000000000001,0)" xlink:href="#aj"/><use transform="matrix(0.05,0,0,0.05,124.80000000000001,0)" xlink:href="#ah"/><use transform="matrix(0.05,0,0,0.05,134.8,0)" xlink:href="#an"/><use transform="matrix(0.05,0,0,0.05,144.8,0)" xlink:href="#al"/><use transform="matrix(0.05,0,0,0.05,157.75,0)" xlink:href="#af"/><use transform="matrix(0.05,0,0,0.05,167.75,0)" xlink:href="#aD"/><use transform="matrix(0.05,0,0,0.05,171.7,0)" xlink:href="#aw"/><use transform="matrix(0.05,0,0,0.05,181.7,0)" xlink:href="#au"/><use transform="matrix(0.05,0,0,0.05,191.7,0)" xlink:href="#as"/></g><path fill="#333" d="M101-234c-31-9-42 10-38 44h38v23H63V0H32v-167H5v-23h27c-7-52 17-82 69-68v24" id="bh"/><g id="K"><use transform="matrix(0.05,0,0,0.05,0,0)" xlink:href="#af"/><use transform="matrix(0.05,0,0,0.05,10,0)" xlink:href="#af"/><use transform="matrix(0.05,0,0,0.05,20,0)" xlink:href="#bd"/><use transform="matrix(0.05,0,0,0.05,29,0)" xlink:href="#at"/><use transform="matrix(0.05,0,0,0.05,38,0)" xlink:href="#bf"/><use transform="matrix(0.05,0,0,0.05,47,0)" xlink:href="#bg"/><use transform="matrix(0.05,0,0,0.05,59,0)" xlink:href="#am"/><use transform="matrix(0.05,0,0,0.05,64.95,0)" xlink:href="#ag"/><use transform="matrix(0.05,0,0,0.05,68.9,0)" xlink:href="#ah"/><use transform="matrix(0.05,0,0,0.05,78.9,0)" xlink:href="#ai"/><use transform="matrix(0.05,0,0,0.05,83.9,0)" xlink:href="#aj"/><use transform="matrix(0.05,0,0,0.05,89.85000000000001,0)" xlink:href="#bh"/><use transform="matrix(0.05,0,0,0.05,94.85000000000001,0)" xlink:href="#ai"/><use transform="matrix(0.05,0,0,0.05,99.85000000000001,0)" xlink:href="#at"/><use transform="matrix(0.05,0,0,0.05,108.85000000000001,0)" xlink:href="#as"/></g><path fill="#333" d="M63-220v92h138v28H63V0H30v-248h175v28H63" id="bi"/><g id="L"><use transform="matrix(0.05,0,0,0.05,0,0)" xlink:href="#aA"/><use transform="matrix(0.05,0,0,0.05,12,0)" xlink:href="#aW"/><use transform="matrix(0.05,0,0,0.05,21,0)" xlink:href="#ai"/><use transform="matrix(0.05,0,0,0.05,26,0)" xlink:href="#am"/><use transform="matrix(0.05,0,0,0.05,31.950000000000003,0)" xlink:href="#ap"/><use transform="matrix(0.05,0,0,0.05,41.95,0)" xlink:href="#bd"/><use transform="matrix(0.05,0,0,0.05,50.95,0)" xlink:href="#ai"/><use transform="matrix(0.05,0,0,0.05,55.95,0)" xlink:href="#bi"/><use transform="matrix(0.05,0,0,0.05,66.9,0)" xlink:href="#an"/><use transform="matrix(0.05,0,0,0.05,76.9,0)" xlink:href="#ap"/><use transform="matrix(0.05,0,0,0.05,86.9,0)" xlink:href="#ai"/><use transform="matrix(0.05,0,0,0.05,91.9,0)" xlink:href="#ar"/><use transform="matrix(0.05,0,0,0.05,101.9,0)" xlink:href="#am"/><use transform="matrix(0.05,0,0,0.05,107.85000000000001,0)" xlink:href="#an"/><use transform="matrix(0.05,0,0,0.05,117.85000000000001,0)" xlink:href="#at"/><use transform="matrix(0.05,0,0,0.05,126.85000000000001,0)" xlink:href="#ak"/></g><g id="M"><use transform="matrix(0.05,0,0,0.05,0,0)" xlink:href="#af"/><use transform="matrix(0.05,0,0,0.05,10,0)" xlink:href="#af"/><use transform="matrix(0.05,0,0,0.05,20,0)" xlink:href="#ay"/><use transform="matrix(0.05,0,0,0.05,30,0)" xlink:href="#am"/><use transform="matrix(0.05,0,0,0.05,35.95,0)" xlink:href="#aw"/><use transform="matrix(0.05,0,0,0.05,45.95,0)" xlink:href="#bd"/><use transform="matrix(0.05,0,0,0.05,54.95,0)" xlink:href="#an"/><use transform="matrix(0.05,0,0,0.05,64.95,0)" xlink:href="#at"/><use transform="matrix(0.05,0,0,0.05,73.95,0)" xlink:href="#at"/><use transform="matrix(0.05,0,0,0.05,82.95,0)" xlink:href="#ag"/><use transform="matrix(0.05,0,0,0.05,86.9,0)" xlink:href="#ah"/><use transform="matrix(0.05,0,0,0.05,96.9,0)" xlink:href="#au"/><use transform="matrix(0.05,0,0,0.05,106.9,0)" xlink:href="#aj"/><use transform="matrix(0.05,0,0,0.05,112.85000000000001,0)" xlink:href="#ah"/><use transform="matrix(0.05,0,0,0.05,122.85000000000001,0)" xlink:href="#an"/><use transform="matrix(0.05,0,0,0.05,132.85000000000002,0)" xlink:href="#al"/><use transform="matrix(0.05,0,0,0.05,145.8,0)" xlink:href="#af"/><use transform="matrix(0.05,0,0,0.05,155.8,0)" xlink:href="#aD"/><use transform="matrix(0.05,0,0,0.05,159.75,0)" xlink:href="#aw"/><use transform="matrix(0.05,0,0,0.05,169.75,0)" xlink:href="#au"/><use transform="matrix(0.05,0,0,0.05,179.75,0)" xlink:href="#as"/></g><g id="N"><use transform="matrix(0.05,0,0,0.05,0,0)" xlink:href="#af"/><use transform="matrix(0.05,0,0,0.05,10,0)" xlink:href="#af"/><use transform="matrix(0.05,0,0,0.05,20,0)" xlink:href="#am"/><use transform="matrix(0.05,0,0,0.05,25.950000000000003,0)" xlink:href="#ar"/><use transform="matrix(0.05,0,0,0.05,35.95,0)" xlink:href="#ah"/><use transform="matrix(0.05,0,0,0.05,45.95,0)" xlink:href="#aj"/><use transform="matrix(0.05,0,0,0.05,51.900000000000006,0)" xlink:href="#ak"/></g><path fill="#333" d="M128 0H69L1-190h53L99-40l48-150h52" id="bj"/><g id="O"><use transform="matrix(0.05,0,0,0.05,0,0)" xlink:href="#ac"/><use transform="matrix(0.05,0,0,0.05,12,0)" xlink:href="#aO"/><use transform="matrix(0.05,0,0,0.05,22,0)" xlink:href="#aK"/><use transform="matrix(0.05,0,0,0.05,29,0)" xlink:href="#bj"/><use transform="matrix(0.05,0,0,0.05,39,0)" xlink:href="#aO"/><use transform="matrix(0.05,0,0,0.05,49,0)" xlink:href="#aK"/></g><g id="P"><use transform="matrix(0.05,0,0,0.05,0,0)" xlink:href="#af"/><use transform="matrix(0.05,0,0,0.05,10,0)" xlink:href="#af"/><use transform="matrix(0.05,0,0,0.05,20,0)" xlink:href="#aF"/><use transform="matrix(0.05,0,0,0.05,30,0)" xlink:href="#aw"/><use transform="matrix(0.05,0,0,0.05,40,0)" xlink:href="#at"/><use transform="matrix(0.05,0,0,0.05,49,0)" xlink:href="#ai"/><use transform="matrix(0.05,0,0,0.05,54,0)" xlink:href="#as"/></g><g id="Q"><use transform="matrix(0.05,0,0,0.05,0,0)" xlink:href="#at"/><use transform="matrix(0.05,0,0,0.05,9,0)" xlink:href="#ai"/><use transform="matrix(0.05,0,0,0.05,14,0)" xlink:href="#am"/><use transform="matrix(0.05,0,0,0.05,19.95,0)" xlink:href="#ag"/><use transform="matrix(0.05,0,0,0.05,23.9,0)" xlink:href="#ah"/><use transform="matrix(0.05,0,0,0.05,33.9,0)" xlink:href="#au"/></g><g id="R"><use transform="matrix(0.05,0,0,0.05,0,0)" xlink:href="#af"/><use transform="matrix(0.05,0,0,0.05,10,0)" xlink:href="#af"/><use transform="matrix(0.05,0,0,0.05,20,0)" xlink:href="#ay"/><use transform="matrix(0.05,0,0,0.05,30,0)" xlink:href="#aw"/><use transform="matrix(0.05,0,0,0.05,40,0)" xlink:href="#am"/><use transform="matrix(0.05,0,0,0.05,45.95,0)" xlink:href="#ai"/><use transform="matrix(0.05,0,0,0.05,50.95,0)" xlink:href="#as"/></g><g id="S"><use transform="matrix(0.05,0,0,0.05,0,0)" xlink:href="#ag"/><use transform="matrix(0.05,0,0,0.05,3.95,0)" xlink:href="#ah"/><use transform="matrix(0.05,0,0,0.05,13.949999999999998,0)" xlink:href="#ai"/></g><g id="T"><use transform="matrix(0.05,0,0,0.05,0,0)" xlink:href="#af"/><use transform="matrix(0.05,0,0,0.05,10,0)" xlink:href="#af"/><use transform="matrix(0.05,0,0,0.05,20,0)" xlink:href="#at"/><use transform="matrix(0.05,0,0,0.05,29,0)" xlink:href="#aw"/><use transform="matrix(0.05,0,0,0.05,39,0)" xlink:href="#bd"/><use transform="matrix(0.05,0,0,0.05,48,0)" xlink:href="#be"/><use transform="matrix(0.05,0,0,0.05,57,0)" xlink:href="#as"/></g><g id="U"><use transform="matrix(0.05,0,0,0.05,0,0)" xlink:href="#af"/><use transform="matrix(0.05,0,0,0.05,10,0)" xlink:href="#af"/><use transform="matrix(0.05,0,0,0.05,20,0)" xlink:href="#ag"/><use transform="matrix(0.05,0,0,0.05,23.95,0)" xlink:href="#ah"/><use transform="matrix(0.05,0,0,0.05,33.95,0)" xlink:href="#ag"/><use transform="matrix(0.05,0,0,0.05,37.900000000000006,0)" xlink:href="#ai"/><use transform="matrix(0.05,0,0,0.05,42.900000000000006,0)" xlink:href="#af"/><use transform="matrix(0.05,0,0,0.05,52.900000000000006,0)" xlink:href="#af"/><use transform="matrix(0.05,0,0,0.05,62.900000000000006,0)" xlink:href="#aj"/><use transform="matrix(0.05,0,0,0.05,68.85000000000001,0)" xlink:href="#aF"/><use transform="matrix(0.05,0,0,0.05,78.85000000000001,0)" xlink:href="#aw"/><use transform="matrix(0.05,0,0,0.05,88.85000000000001,0)" xlink:href="#at"/><use transform="matrix(0.05,0,0,0.05,97.85000000000001,0)" xlink:href="#ai"/><use transform="matrix(0.05,0,0,0.05,102.85000000000001,0)" xlink:href="#as"/></g><g id="V"><use transform="matrix(0.05,0,0,0.05,0,0)" xlink:href="#ay"/><use transform="matrix(0.05,0,0,0.05,10,0)" xlink:href="#aw"/><use transform="matrix(0.05,0,0,0.05,20,0)" xlink:href="#am"/><use transform="matrix(0.05,0,0,0.05,25.950000000000003,0)" xlink:href="#ai"/><use transform="matrix(0.05,0,0,0.05,30.950000000000003,0)" xlink:href="#as"/></g><g id="W"><use transform="matrix(0.05,0,0,0.05,0,0)" xlink:href="#ag"/><use transform="matrix(0.05,0,0,0.05,3.95,0)" xlink:href="#ah"/><use transform="matrix(0.05,0,0,0.05,13.949999999999998,0)" xlink:href="#ai"/><use transform="matrix(0.05,0,0,0.05,18.95,0)" xlink:href="#ak"/></g><path fill="#333" d="M115-194c53 0 69 39 70 98 0 66-23 100-70 100C84 3 66-7 56-30L54 0H23l1-261h32v101c10-23 28-34 59-34zm-8 174c40 0 45-34 45-75 0-40-5-75-45-74-42 0-51 32-51 76 0 43 10 73 51 73" id="bk"/><g id="X"><use transform="matrix(0.05,0,0,0.05,0,0)" xlink:href="#bk"/><use transform="matrix(0.05,0,0,0.05,10,0)" xlink:href="#ag"/><use transform="matrix(0.05,0,0,0.05,13.949999999999998,0)" xlink:href="#ah"/><use transform="matrix(0.05,0,0,0.05,23.95,0)" xlink:href="#aq"/><use transform="matrix(0.05,0,0,0.05,33.95,0)" xlink:href="#ag"/><use transform="matrix(0.05,0,0,0.05,37.900000000000006,0)" xlink:href="#ah"/><use transform="matrix(0.05,0,0,0.05,47.900000000000006,0)" xlink:href="#au"/><use transform="matrix(0.05,0,0,0.05,57.900000000000006,0)" xlink:href="#aj"/><use transform="matrix(0.05,0,0,0.05,63.85,0)" xlink:href="#ah"/><use transform="matrix(0.05,0,0,0.05,73.85000000000001,0)" xlink:href="#as"/></g><g id="Y"><use transform="matrix(0.05,0,0,0.05,0,0)" xlink:href="#aD"/><use transform="matrix(0.05,0,0,0.05,3.95,0)" xlink:href="#ag"/><use transform="matrix(0.05,0,0,0.05,7.9,0)" xlink:href="#at"/><use transform="matrix(0.05,0,0,0.05,16.9,0)" xlink:href="#ai"/><use transform="matrix(0.05,0,0,0.05,21.9,0)" xlink:href="#an"/><use transform="matrix(0.05,0,0,0.05,31.899999999999995,0)" xlink:href="#ah"/><use transform="matrix(0.05,0,0,0.05,41.9,0)" xlink:href="#aB"/><use transform="matrix(0.05,0,0,0.05,53.900000000000006,0)" xlink:href="#aD"/><use transform="matrix(0.05,0,0,0.05,57.85,0)" xlink:href="#aD"/><use transform="matrix(0.05,0,0,0.05,61.800000000000004,0)" xlink:href="#aj"/><use transform="matrix(0.05,0,0,0.05,67.75,0)" xlink:href="#ak"/></g><g id="Z"><use transform="matrix(0.05,0,0,0.05,0,0)" xlink:href="#bd"/><use transform="matrix(0.05,0,0,0.05,9,0)" xlink:href="#aD"/><use transform="matrix(0.05,0,0,0.05,12.949999999999998,0)" xlink:href="#aw"/><use transform="matrix(0.05,0,0,0.05,22.95,0)" xlink:href="#at"/><use transform="matrix(0.05,0,0,0.05,31.950000000000003,0)" xlink:href="#an"/><use transform="matrix(0.05,0,0,0.05,41.95,0)" xlink:href="#aj"/><use transform="matrix(0.05,0,0,0.05,47.900000000000006,0)" xlink:href="#ak"/></g><path fill="#333" d="M80-196l47-18 7 23-49 13 32 44-20 13-27-46-27 45-21-12 33-44-49-13 8-23 47 19-2-53h23" id="bl"/><use transform="matrix(0.08086419753086417,0,0,0.08086419753086417,0,0)" xlink:href="#bl" id="aa"/></defs></g></svg>